{"title":"Once Upon A Time In Mumbai Again (Uncut) With Bismillah Song","uid":9130811,"size":1364476717,"categoryP":"video","categoryS":"movies","magnet":"?xt=urn:btih:995118dc416f31c28c2b1215d3b9d1177ee2e256&amp;dn=Once+Upon+A+Time+In+Mumbai+Again+%28Uncut%29+With+Bismillah+Song&amp;tr=udp%3A%2F%2Ftracker.openbittorrent.com%3A80&amp;tr=udp%3A%2F%2Fopen.demonii.com%3A1337&amp;tr=udp%3A%2F%2Ftracker.coppersurfer.tk%3A6969&amp;tr=udp%3A%2F%2Fexodus.desync.com%3A6969","seeders":1,"leechers":0,"uploader":"olddilli","files":6,"time":1383312779,"description":"General\nComplete name                            : Once Upon A Time In Mumbai Again(Uncut) - 1 CD Xxid  DVDRIP By --[Sam]--.avi\nFormat                                   : AVI\nFormat/Info                              : Audio Video Interleave\nFormat profile                           : OpenDML\nFile size                                : 1.26 GiB\nDuration                                 : 2h 32mn\nOverall bit rate                         : 1 178 Kbps\n\nVideo\nID                                       : 0\nFormat                                   : MPEG-4 Visual\nFormat profile                           : Simple@L3\nFormat settings, BVOP                    : No\nFormat settings, QPel                    : No\nFormat settings, GMC                     : No warppoints\nFormat settings, Matrix                  : Default (H.263)\nCodec ID                                 : XVID\nCodec ID/Hint                            : XviD\nDuration                                 : 2h 32mn\nBit rate                                 : 1 033 Kbps\nWidth                                    : 640 pixels\nHeight                                   : 272 pixels\nDisplay aspect ratio                     : 2.35:1\nFrame rate                               : 29.970 fps\nOriginal frame rate                      : 29.000 fps\nColor space                              : YUV\nChroma subsampling                       : 4:2:0\nBit depth                                : 8 bits\nScan type                                : Progressive\nCompression mode                         : Lossy\nBits/(Pixel*Frame)                       : 0.198\nStream size                              : 1.10 GiB (88%)\nWriting library                          : XviD 1.2.1 (UTC 2008-12-04)\n\nAudio\nID                                       : 1\nFormat                                   : MPEG Audio\nFormat version                           : Version 1\nFormat profile                           : Layer 3\nMode                                     : Joint stereo\nMode extension                           : MS Stereo\nCodec ID                                 : 55\nCodec ID/Hint                            : MP3\nDuration                                 : 2h 32mn\nBit rate mode                            : Constant\nBit rate                                 : 128 Kbps\nChannel count                            : 2 channels\nSampling rate                            : 44.1 KHz\nCompression mode                         : Lossy\nStream size                              : 140 MiB (11%)\nAlignment                                : Aligned on interleaves\nInterleave, duration                     : 26 ms (0.78 video frame)\nWriting library                          : LAME3.98.2\n\n","torrent":{"xt":"urn:btih:995118dc416f31c28c2b1215d3b9d1177ee2e256","amp;dn":"Once+Upon+A+Time+In+Mumbai+Again+%28Uncut%29+With+Bismillah+Song","amp;tr":["udp%3A%2F%2Ftracker.openbittorrent.com%3A80","udp%3A%2F%2Fopen.demonii.com%3A1337","udp%3A%2F%2Ftracker.coppersurfer.tk%3A6969","udp%3A%2F%2Fexodus.desync.com%3A6969"],"infoHash":"995118dc416f31c28c2b1215d3b9d1177ee2e256","infoHashBuffer":{"type":"Buffer","data":[153,81,24,220,65,111,49,194,140,43,18,21,211,185,209,23,126,226,226,86]},"announce":[],"urlList":[]}}